{"title":"The Avengers 2012 TS SUPERDUPER HQ  XViD-INSPiRAL","uid":7509864,"size":1552751946,"categoryP":"video","categoryS":"movies","magnet":"?xt=urn:btih:300052c449ba926486f4a8bdd102297d06ae592f&amp;dn=The+Avengers+2012+TS+SUPERDUPER+HQ++XViD-INSPiRAL&amp;tr=udp%3A%2F%2Ftracker.openbittorrent.com%3A80&amp;tr=udp%3A%2F%2Fopen.demonii.com%3A1337&amp;tr=udp%3A%2F%2Ftracker.coppersurfer.tk%3A6969&amp;tr=udp%3A%2F%2Fexodus.desync.com%3A6969","seeders":3,"leechers":0,"uploader":"crazy-torrent","files":2,"time":1344283286,"description":"SOURCES: \n\nVIDEO - CHINESE RIP THANKS \nAUDIO - ADTRG THANKS \nSUBS - Eng Custom when needed. \n\nSTATS: \n\nVideo \nID : 0 \nFormat : MPEG-4 Visual \nFormat profile : Advanced Simple@L5 \nFormat settings, BVOP : 2 \nFormat settings, QPel : No \nFormat settings, GMC : No warppoints \nFormat settings, Matrix : Default (MPEG) \nMuxing mode : Packed bitstream \nCodec ID : XVID \nCodec ID/Hint : XviD \nDuration : 2h 16mn \nBit rate : 1 316 Kbps \nWidth : 720 pixels \nHeight : 320 pixels \nDisplay aspect ratio : 2.25:1 \nFrame rate : 29.970 fps \nColor space : YUV \nChroma subsampling : 4:2:0 \nBit depth : 8 bits \nScan type : Progressive \nCompression mode : Lossy \nBits/(Pixel*Frame) : 0.191 \nStream size : 1.25 GiB (87%) \nWriting library : XviD 64 \n\nAudio \nID : 1 \nFormat : MPEG Audio \nFormat version : Version 1 \nFormat profile : Layer 3 \nMode : Joint stereo \nCodec ID : 55 \nCodec ID/Hint : MP3 \nDuration : 2h 16mn \nBit rate mode : Constant \nBit rate : 192 Kbps \nChannel(s) : 2 channels \nSampling rate : 48.0 KHz \nCompression mode : Lossy \nStream size : 187 MiB (13%) \nAlignment : Split accross interleaves \nInterleave, duration : 33 ms (1.00 video frame) \nInterleave, preload duration : 500 ms \n\n\n\nNOTES: \n\n\nOk where too start hmmmmm... \nVideo same as before but this time round,where the black widow scene is with chinese subs i have opted too cut \nthe subs ...around 10-12 pixels and THEN hardcode subs custom subs.AR goes slightly out for 2mins during this part \nas i needed to resize that scene so i could append it later. \nAudio was great,but i thought i give it some cleaning in AA changing the EQ levels etc. \nOnly pita was the audio didn't fit over our encode from before so had too go through and resync it to our rip. \nWithout the line source file had to do it the old fashion way and made a few cuts and add different offsets ....took 20 cuts \ntoo get it right or well dam close anyway lol. \nHeres release 101 enjoy folks ..... ","torrent":{"xt":"urn:btih:300052c449ba926486f4a8bdd102297d06ae592f","amp;dn":"The+Avengers+2012+TS+SUPERDUPER+HQ++XViD-INSPiRAL","amp;tr":["udp%3A%2F%2Ftracker.openbittorrent.com%3A80","udp%3A%2F%2Fopen.demonii.com%3A1337","udp%3A%2F%2Ftracker.coppersurfer.tk%3A6969","udp%3A%2F%2Fexodus.desync.com%3A6969"],"infoHash":"300052c449ba926486f4a8bdd102297d06ae592f","infoHashBuffer":{"type":"Buffer","data":[48,0,82,196,73,186,146,100,134,244,168,189,209,2,41,125,6,174,89,47]},"announce":[],"urlList":[]}}